<?xml version="1.0" standalone="no"?>
<!DOCTYPE svg PUBLIC "-//W3C//DTD SVG 20010904//EN"
 "http://www.w3.org/TR/2001/REC-SVG-20010904/DTD/svg10.dtd">
<svg version="1.0" xmlns="http://www.w3.org/2000/svg"
 width="512.000000pt" height="512.000000pt" viewBox="0 0 512.000000 512.000000"
 preserveAspectRatio="xMidYMid meet">

<g transform="translate(0.000000,512.000000) scale(0.100000,-0.100000)"
fill="#000000" stroke="none">
<path d="M2480 4526 c-108 -23 -190 -90 -238 -196 -38 -80 -38 -202 0 -282 31
-67 98 -138 155 -163 l40 -18 5 -91 c6 -102 21 -137 66 -154 15 -6 95 -15 177
-21 500 -36 920 -226 1271 -576 353 -352 552 -800 579 -1305 7 -131 16 -162
53 -186 34 -22 100 -22 134 0 42 28 52 73 44 209 -38 708 -409 1349 -1006
1740 -310 202 -634 315 -1012 352 -80 8 -87 23 -26 50 57 25 124 95 156 163
38 81 38 202 0 283 -50 109 -137 177 -252 198 -70 13 -75 13 -146 -3z m153
-246 c35 -28 49 -81 34 -127 -16 -48 -55 -76 -107 -76 -78 0 -130 70 -109 147
14 50 51 76 109 76 33 0 55 -6 73 -20z"/>
<path d="M1935 3755 c-167 -51 -238 -80 -384 -156 -220 -114 -354 -211 -538
-390 -347 -337 -569 -779 -644 -1279 -6 -41 -13 -206 -16 -367 l-5 -292 -67
-20 c-107 -33 -187 -108 -243 -228 -30 -64 -33 -76 -36 -199 -5 -148 5 -193
46 -221 26 -17 119 -18 2512 -18 2393 0 2486 1 2512 18 41 28 51 73 46 221 -4
123 -6 135 -37 203 -37 80 -116 165 -186 201 -110 55 17 52 -2068 52 -2098 0
-1968 4 -1996 -56 -25 -56 -6 -139 37 -161 9 -4 888 -10 1952 -13 1929 -5
1935 -5 1970 -26 19 -11 45 -34 56 -52 25 -36 49 -125 40 -147 -5 -13 -280
-15 -2326 -15 -2046 0 -2321 2 -2326 15 -9 22 15 111 40 147 33 49 75 69 163
75 71 6 81 9 111 39 l32 32 0 264 c0 484 34 714 149 1001 224 560 728 1003
1316 1158 110 29 153 62 162 125 6 50 -7 78 -50 104 -45 28 -95 24 -222 -15z"/>
<path d="M2086 3314 c-248 -68 -503 -214 -713 -409 -87 -80 -107 -124 -80
-180 25 -52 65 -72 133 -67 11 1 60 38 110 83 196 176 429 303 651 355 154 35
192 168 66 233 -31 16 -66 13 -167 -15z"/>
</g>
</svg>
